# xmcd
#
# Track frame offsets:
# 150
# 14717
# 28050
# 42657
# 56907
# 70180
# 82985
# 95430
# 107952
# 122125
# 136045
# 149822
# 164975
# 179595
#
# Disc length: 2571 seconds
#
#
# Revision: 0
# Processed by: cddbd v1.5.2PL0 Copyright (c) Steve Scherf et al.
# Submitted via: FreeRIP 2.95 
#
DISCID=dc0a090e
DTITLE=Raul Torres and Florencio - Luar do Sertão
DYEAR=1900
DGENRE=
TTITLE0=A Moda da Mula Preta
TTITLE1=Pra Lá da Porteira
TTITLE2=Moça Boiadeira
TTITLE3=Cabocla Tereza
TTITLE4=Dama do Baralho
TTITLE5=Gostei Da Morena
TTITLE6=As Modas Femininas
TTITLE7=Pingo D´Agua
TTITLE8=Cabocla Bonita
TTITLE9=Se Ter Amor Fosse Crime
TTITLE10=Rolinha Cabocla
TTITLE11=Meu Sofrimento
TTITLE12=Perto Do Coração
TTITLE13=Chico Mulato
EXTD=
EXTT0=
EXTT1=
EXTT2=
EXTT3=
EXTT4=
EXTT5=
EXTT6=
EXTT7=
EXTT8=
EXTT9=
EXTT10=
EXTT11=
EXTT12=
EXTT13=
PLAYORDER=
